# xmcd CD database file
#
# Track frame offsets:
#	150
#	15794
#	32148
#	51680
#	77528
#	95331
#	116327
#	134776
#	151107
#	168377
#	187616
#	204037
#	229439
#	248228
#	266472
#	288931
#
# Disc length: 4029 seconds
#
# Revision: 0
# Processed by: cddbd v1.5.2PL0 Copyright (c) Steve Scherf et al.
# Submitted via: CDex 1.70beta2
#
DISCID=c80fbb10
DTITLE=Teddy Wilson trio w. Jo Jones - Complete Recordings
DYEAR=2007
DGENRE=Jazz
TTITLE0=Whispering
TTITLE1=Poor Butterfly
TTITLE2=Rosetta
TTITLE3=Basin Street Blues
TTITLE4=How Deep Is the Ocean
TTITLE5=Just One of Those Things
TTITLE6=Have You Met Miss Jones
TTITLE7=It Don't Mean A Thing
TTITLE8=Little Girl Blue
TTITLE9=June in January
TTITLE10=Jeepers Creepers
TTITLE11=Rosetta
TTITLE12=The Birth of the Blues
TTITLE13=When Your Lover Has Gone
TTITLE14=The Moon Is Low
TTITLE15=This Love of Mine
EXTD=YEAR: 2007
EXTT0=
EXTT1=
EXTT2=
EXTT3=
EXTT4=
EXTT5=
EXTT6=
EXTT7=
EXTT8=
EXTT9=
EXTT10=
EXTT11=
EXTT12=
EXTT13=
EXTT14=
EXTT15=
PLAYORDER=
